{
    "asset" : {
        "generator" : "Khronos glTF Blender I/O v3.2.43",
        "version" : "2.0"
    },
    "scene" : 0,
    "scenes" : [
        {
            "name" : "Scene",
            "nodes" : [
                0
            ]
        }
    ],
    "nodes" : [
        {
            "mesh" : 0,
            "name" : "Sphere",
            "rotation" : [
                1,
                0,
                0,
                0
            ],
            "scale" : [
                -1,
                -1,
                -1
            ]
        }
    ],
    "materials" : [
        {
            "doubleSided" : true,
            "name" : "Material.001",
            "pbrMetallicRoughness" : {
                "baseColorFactor" : [
                    0.800000011920929,
                    0.800000011920929,
                    0.800000011920929,
                    1
                ],
                "metallicFactor" : 0,
                "roughnessFactor" : 0.5
            }
        }
    ],
    "meshes" : [
        {
            "name" : "Sphere",
            "primitives" : [
                {
                    "attributes" : {
                        "POSITION" : 0,
                        "NORMAL" : 1,
                        "TEXCOORD_0" : 2
                    },
                    "indices" : 3,
                    "material" : 0
                }
            ]
        }
    ],
    "accessors" : [
        {
            "bufferView" : 0,
            "componentType" : 5126,
            "count" : 7534,
            "max" : [
                0.3550046980381012,
                1.822222352027893,
                0.7494101524353027
            ],
            "min" : [
                -0.3620254099369049,
                0.08732329308986664,
                -0.7494101524353027
            ],
            "type" : "VEC3"
        },
        {
            "bufferView" : 1,
            "componentType" : 5126,
            "count" : 7534,
            "type" : "VEC3"
        },
        {
            "bufferView" : 2,
            "componentType" : 5126,
            "count" : 7534,
            "type" : "VEC2"
        },
        {
            "bufferView" : 3,
            "componentType" : 5123,
            "count" : 11508,
            "type" : "SCALAR"
        }
    ],
    "bufferViews" : [
        {
            "buffer" : 0,
            "byteLength" : 90408,
            "byteOffset" : 0
        },
        {
            "buffer" : 0,
            "byteLength" : 90408,
            "byteOffset" : 90408
        },
        {
            "buffer" : 0,
            "byteLength" : 60272,
            "byteOffset" : 180816
        },
        {
            "buffer" : 0,
            "byteLength" : 23016,
            "byteOffset" : 241088
        }
    ],
    "buffers" : [
        {
            "byteLength" : 264104,
            "uri" : "data:application/octet-stream;base64,"
        }
    ]
}
