{
    "asset" : {
        "generator" : "Khronos glTF Blender I/O v3.2.43",
        "version" : "2.0"
    },
    "scene" : 0,
    "scenes" : [
        {
            "name" : "Scene",
            "nodes" : [
                0,
                1,
                2,
                3,
                4
            ]
        }
    ],
    "nodes" : [
        {
            "mesh" : 0,
            "name" : "Sphere",
            "rotation" : [
                1,
                0,
                0,
                0
            ],
            "scale" : [
                -1,
                -1,
                -1
            ]
        },
        {
            "mesh" : 1,
            "name" : "Sphere.001",
            "rotation" : [
                0.5555247068405151,
                0.4374840557575226,
                -0.5358178615570068,
                0.4614101052284241
            ],
            "translation" : [
                0.3516767621040344,
                0.3304142355918884,
                0.001491207629442215
            ]
        },
        {
            "mesh" : 2,
            "name" : "Sphere.002",
            "rotation" : [
                0.5555247068405151,
                0.4374840557575226,
                -0.5358178615570068,
                0.4614101052284241
            ],
            "translation" : [
                0.3516767621040344,
                0.3304142355918884,
                0.001491207629442215
            ]
        },
        {
            "mesh" : 3,
            "name" : "Sphere.003",
            "rotation" : [
                0.5555247068405151,
                0.4374840557575226,
                -0.5358178615570068,
                0.4614101052284241
            ],
            "translation" : [
                0.3516767621040344,
                0.3304142355918884,
                0.001491207629442215
            ]
        },
        {
            "mesh" : 4,
            "name" : "Torus.001"
        }
    ],
    "materials" : [
        {
            "doubleSided" : true,
            "name" : "Material.001",
            "pbrMetallicRoughness" : {
                "baseColorFactor" : [
                    0.800000011920929,
                    0.800000011920929,
                    0.800000011920929,
                    1
                ],
                "metallicFactor" : 0,
                "roughnessFactor" : 0.5
            }
        }
    ],
    "meshes" : [
        {
            "name" : "Sphere",
            "primitives" : [
                {
                    "attributes" : {
                        "POSITION" : 0,
                        "NORMAL" : 1,
                        "TEXCOORD_0" : 2
                    },
                    "indices" : 3,
                    "material" : 0
                }
            ]
        },
        {
            "name" : "Sphere.001",
            "primitives" : [
                {
                    "attributes" : {
                        "POSITION" : 4,
                        "NORMAL" : 5,
                        "TEXCOORD_0" : 6
                    },
                    "indices" : 7
                }
            ]
        },
        {
            "name" : "Sphere.002",
            "primitives" : [
                {
                    "attributes" : {
                        "POSITION" : 8,
                        "NORMAL" : 9,
                        "TEXCOORD_0" : 10
                    },
                    "indices" : 11
                }
            ]
        },
        {
            "name" : "Sphere.003",
            "primitives" : [
                {
                    "attributes" : {
                        "POSITION" : 12,
                        "NORMAL" : 13,
                        "TEXCOORD_0" : 14
                    },
                    "indices" : 15
                }
            ]
        },
        {
            "name" : "Torus.001",
            "primitives" : [
                {
                    "attributes" : {
                        "POSITION" : 16,
                        "NORMAL" : 17,
                        "TEXCOORD_0" : 18
                    },
                    "indices" : 19
                }
            ]
        }
    ],
    "accessors" : [
        {
            "bufferView" : 0,
            "componentType" : 5126,
            "count" : 7960,
            "max" : [
                0.3550046980381012,
                1.7796484231948853,
                0.7494101524353027
            ],
            "min" : [
                -0.3620254099369049,
                0.0057824766263365746,
                -0.7494101524353027
            ],
            "type" : "VEC3"
        },
        {
            "bufferView" : 1,
            "componentType" : 5126,
            "count" : 7960,
            "type" : "VEC3"
        },
        {
            "bufferView" : 2,
            "componentType" : 5126,
            "count" : 7960,
            "type" : "VEC2"
        },
        {
            "bufferView" : 3,
            "componentType" : 5123,
            "count" : 11700,
            "type" : "SCALAR"
        },
        {
            "bufferView" : 4,
            "componentType" : 5126,
            "count" : 672,
            "max" : [
                0.08865711092948914,
                -0.015451953746378422,
                0.14327017962932587
            ],
            "min" : [
                -0.09052225947380066,
                -0.09335868060588837,
                -0.008776670321822166
            ],
            "type" : "VEC3"
        },
        {
            "bufferView" : 5,
            "componentType" : 5126,
            "count" : 672,
            "type" : "VEC3"
        },
        {
            "bufferView" : 6,
            "componentType" : 5126,
            "count" : 672,
            "type" : "VEC2"
        },
        {
            "bufferView" : 7,
            "componentType" : 5123,
            "count" : 864,
            "type" : "SCALAR"
        },
        {
            "bufferView" : 8,
            "componentType" : 5126,
            "count" : 671,
            "max" : [
                0.4204414188861847,
                -0.07040125876665115,
                0.10325028747320175
            ],
            "min" : [
                0.24782483279705048,
                -0.15597152709960938,
                -0.048087503761053085
            ],
            "type" : "VEC3"
        },
        {
            "bufferView" : 9,
            "componentType" : 5126,
            "count" : 671,
            "type" : "VEC3"
        },
        {
            "bufferView" : 10,
            "componentType" : 5126,
            "count" : 671,
            "type" : "VEC2"
        },
        {
            "bufferView" : 11,
            "componentType" : 5123,
            "count" : 864,
            "type" : "SCALAR"
        },
        {
            "bufferView" : 12,
            "componentType" : 5126,
            "count" : 671,
            "max" : [
                -0.2533651888370514,
                -0.052994512021541595,
                0.10622165352106094
            ],
            "min" : [
                -0.42528682947158813,
                -0.13622936606407166,
                -0.03978811949491501
            ],
            "type" : "VEC3"
        },
        {
            "bufferView" : 13,
            "componentType" : 5126,
            "count" : 671,
            "type" : "VEC3"
        },
        {
            "bufferView" : 14,
            "componentType" : 5126,
            "count" : 671,
            "type" : "VEC2"
        },
        {
            "bufferView" : 15,
            "componentType" : 5123,
            "count" : 864,
            "type" : "SCALAR"
        },
        {
            "bufferView" : 16,
            "componentType" : 5126,
            "count" : 1116,
            "max" : [
                0.052732475101947784,
                1.9907838106155396,
                0.14995691180229187
            ],
            "min" : [
                -0.052730757743120193,
                1.6913058757781982,
                -0.14940863847732544
            ],
            "type" : "VEC3"
        },
        {
            "bufferView" : 17,
            "componentType" : 5126,
            "count" : 1116,
            "type" : "VEC3"
        },
        {
            "bufferView" : 18,
            "componentType" : 5126,
            "count" : 1116,
            "type" : "VEC2"
        },
        {
            "bufferView" : 19,
            "componentType" : 5123,
            "count" : 1674,
            "type" : "SCALAR"
        }
    ],
    "bufferViews" : [
        {
            "buffer" : 0,
            "byteLength" : 95520,
            "byteOffset" : 0
        },
        {
            "buffer" : 0,
            "byteLength" : 95520,
            "byteOffset" : 95520
        },
        {
            "buffer" : 0,
            "byteLength" : 63680,
            "byteOffset" : 191040
        },
        {
            "buffer" : 0,
            "byteLength" : 23400,
            "byteOffset" : 254720
        },
        {
            "buffer" : 0,
            "byteLength" : 8064,
            "byteOffset" : 278120
        },
        {
            "buffer" : 0,
            "byteLength" : 8064,
            "byteOffset" : 286184
        },
        {
            "buffer" : 0,
            "byteLength" : 5376,
            "byteOffset" : 294248
        },
        {
            "buffer" : 0,
            "byteLength" : 1728,
            "byteOffset" : 299624
        },
        {
            "buffer" : 0,
            "byteLength" : 8052,
            "byteOffset" : 301352
        },
        {
            "buffer" : 0,
            "byteLength" : 8052,
            "byteOffset" : 309404
        },
        {
            "buffer" : 0,
            "byteLength" : 5368,
            "byteOffset" : 317456
        },
        {
            "buffer" : 0,
            "byteLength" : 1728,
            "byteOffset" : 322824
        },
        {
            "buffer" : 0,
            "byteLength" : 8052,
            "byteOffset" : 324552
        },
        {
            "buffer" : 0,
            "byteLength" : 8052,
            "byteOffset" : 332604
        },
        {
            "buffer" : 0,
            "byteLength" : 5368,
            "byteOffset" : 340656
        },
        {
            "buffer" : 0,
            "byteLength" : 1728,
            "byteOffset" : 346024
        },
        {
            "buffer" : 0,
            "byteLength" : 13392,
            "byteOffset" : 347752
        },
        {
            "buffer" : 0,
            "byteLength" : 13392,
            "byteOffset" : 361144
        },
        {
            "buffer" : 0,
            "byteLength" : 8928,
            "byteOffset" : 374536
        },
        {
            "buffer" : 0,
            "byteLength" : 3348,
            "byteOffset" : 383464
        }
    ],
    "buffers" : [
        {
            "byteLength" : 386812,
            "uri" : "data:application/octet-stream;base64,"
        }
    ]
}
